# Blender 4.2.1 LTS
# www.blender.org
mtllib cat.mtl
o Untitled
v -1.000002 -0.301297 0.760280
v -1.000002 -0.301297 0.660280
v -1.000002 -0.201297 0.760280
v -1.000002 -0.201297 0.660280
v -1.000002 -0.101297 0.760280
v -1.000002 -0.101297 0.660280
v -1.000002 -0.001297 0.760280
v -1.000002 -0.001297 0.660280
v -0.800002 -0.901297 0.860280
v -0.800002 -0.901297 0.260280
v -0.800002 -0.901297 -0.139720
v -0.800002 -0.901297 -0.739720
v -0.800002 -0.801297 0.860280
v -0.800002 -0.801297 0.260280
v -0.800002 -0.801297 -0.139720
v -0.800002 -0.801297 -0.739720
v -0.800002 -0.601297 0.560280
v -0.800002 -0.601297 0.360280
v -0.800002 -0.601297 0.260280
v -0.800002 -0.601297 -0.139720
v -0.800002 -0.601297 -0.239720
v -0.800002 -0.601297 -0.439720
v -0.800002 -0.401297 0.260280
v -0.800002 -0.401297 -0.139720
v -0.800002 -0.301297 0.760280
v -0.800002 -0.301297 0.660280
v -0.800002 -0.301297 0.160280
v -0.800002 -0.301297 -0.039720
v -0.800002 -0.201297 0.760280
v -0.800002 -0.201297 0.660280
v -0.800002 -0.101297 0.760280
v -0.800002 -0.101297 0.660280
v -0.800002 -0.001297 0.760280
v -0.800002 -0.001297 0.660280
v -0.800002 0.498703 0.560280
v -0.800002 0.498703 0.360280
v -0.800002 0.498703 0.160280
v -0.800002 0.498703 -0.039720
v -0.800002 0.498703 -0.239720
v -0.800002 0.498703 -0.439720
v -0.800002 0.698703 0.860280
v -0.800002 0.698703 -0.739720
v -0.700002 0.698703 0.760280
v -0.700002 0.698703 0.560280
v -0.700002 0.998703 0.760280
v -0.700002 0.998703 0.560280
v -0.400002 -0.301297 0.960280
v -0.400002 -0.301297 0.860280
v -0.400002 -0.001297 0.960280
v -0.400002 -0.001297 0.860280
v -0.200002 -0.101297 -0.739720
v -0.200002 -0.101297 -1.139720
v -0.200002 0.298703 -0.739720
v -0.200002 0.298703 -0.839720
v -0.200002 1.198703 -0.839720
v -0.200002 1.198703 -1.139720
v 0.099998 -0.301297 0.960280
v 0.099998 -0.301297 0.860280
v 0.099998 -0.201297 0.960280
v 0.099998 -0.201297 0.860280
v 0.299998 -0.901297 0.860280
v 0.299998 -0.901297 0.260280
v 0.299998 -0.901297 -0.139720
v 0.299998 -0.901297 -0.739720
v 0.299998 -0.801297 0.860280
v 0.299998 -0.801297 0.260280
v 0.299998 -0.801297 -0.139720
v 0.299998 -0.801297 -0.739720
v 0.299998 -0.601297 0.860280
v 0.299998 -0.601297 0.260280
v 0.299998 -0.601297 -0.139720
v 0.299998 -0.601297 -0.739720
v 0.299998 0.698703 0.760280
v 0.299998 0.698703 0.560280
v 0.299998 0.998703 0.760280
v 0.299998 0.998703 0.560280
v -0.300002 -0.901297 0.860280
v -0.300002 -0.901297 0.260280
v -0.300002 -0.901297 -0.139720
v -0.300002 -0.901297 -0.739720
v -0.300002 -0.801297 0.860280
v -0.300002 -0.801297 0.260280
v -0.300002 -0.801297 -0.139720
v -0.300002 -0.801297 -0.739720
v -0.300002 -0.601297 0.860280
v -0.300002 -0.601297 0.260280
v -0.300002 -0.601297 -0.139720
v -0.300002 -0.601297 -0.739720
v -0.300002 0.698703 0.760280
v -0.300002 0.698703 0.560280
v -0.300002 0.998703 0.760280
v -0.300002 0.998703 0.560280
v -0.100002 -0.301297 0.960280
v -0.100002 -0.301297 0.860280
v -0.100002 -0.201297 0.960280
v -0.100002 -0.201297 0.860280
v 0.199998 -0.101297 -0.739720
v 0.199998 -0.101297 -1.139720
v 0.199998 0.298703 -0.739720
v 0.199998 0.298703 -0.839720
v 0.199998 1.198703 -0.839720
v 0.199998 1.198703 -1.139720
v 0.399998 -0.301297 0.960280
v 0.399998 -0.301297 0.860280
v 0.399998 -0.001297 0.960280
v 0.399998 -0.001297 0.860280
v 0.699998 0.698703 0.760280
v 0.699998 0.698703 0.560280
v 0.699998 0.998703 0.760280
v 0.699998 0.998703 0.560280
v 0.799998 -0.901297 0.860280
v 0.799998 -0.901297 0.260280
v 0.799998 -0.901297 -0.139720
v 0.799998 -0.901297 -0.739720
v 0.799998 -0.801297 0.860280
v 0.799998 -0.801297 0.260280
v 0.799998 -0.801297 -0.139720
v 0.799998 -0.801297 -0.739720
v 0.799998 -0.601297 0.560280
v 0.799998 -0.601297 0.360280
v 0.799998 -0.601297 0.260280
v 0.799998 -0.601297 -0.139720
v 0.799998 -0.601297 -0.239720
v 0.799998 -0.601297 -0.439720
v 0.799998 -0.401297 0.260280
v 0.799998 -0.401297 -0.139720
v 0.799998 -0.301297 0.760280
v 0.799998 -0.301297 0.660280
v 0.799998 -0.301297 0.160280
v 0.799998 -0.301297 -0.039720
v 0.799998 -0.201297 0.760280
v 0.799998 -0.201297 0.660280
v 0.799998 -0.101297 0.760280
v 0.799998 -0.101297 0.660280
v 0.799998 -0.001297 0.760280
v 0.799998 -0.001297 0.660280
v 0.799998 0.498703 0.560280
v 0.799998 0.498703 0.360280
v 0.799998 0.498703 0.160280
v 0.799998 0.498703 -0.039720
v 0.799998 0.498703 -0.239720
v 0.799998 0.498703 -0.439720
v 0.799998 0.698703 0.860280
v 0.799998 0.698703 -0.739720
v 0.999998 -0.301297 0.760280
v 0.999998 -0.301297 0.660280
v 0.999998 -0.201297 0.760280
v 0.999998 -0.201297 0.660280
v 0.999998 -0.101297 0.760280
v 0.999998 -0.101297 0.660280
v 0.999998 -0.001297 0.760280
v 0.999998 -0.001297 0.660280
v -0.400002 -0.301297 0.960280
v -0.400002 -0.001297 0.960280
v -0.100002 -0.301297 0.960280
v -0.100002 -0.201297 0.960280
v -0.100002 -0.101297 0.960280
v -0.100002 -0.001297 0.960280
v 0.099998 -0.301297 0.960280
v 0.099998 -0.201297 0.960280
v 0.099998 -0.101297 0.960280
v 0.099998 -0.001297 0.960280
v 0.399998 -0.301297 0.960280
v 0.399998 -0.001297 0.960280
v -0.800002 -0.901297 0.860280
v -0.800002 -0.801297 0.860280
v -0.800002 0.698703 0.860280
v -0.600002 -0.001297 0.860280
v -0.600002 0.398703 0.860280
v -0.500002 0.098703 0.860280
v -0.500002 0.398703 0.860280
v -0.400002 -0.301297 0.860280
v -0.400002 -0.001297 0.860280
v -0.300002 -0.901297 0.860280
v -0.300002 -0.801297 0.860280
v -0.300002 -0.601297 0.860280
v -0.300002 -0.501297 0.860280
v -0.300002 0.298703 0.860280
v -0.300002 0.398703 0.860280
v -0.200002 -0.501297 0.860280
v -0.200002 -0.401297 0.860280
v -0.200002 -0.001297 0.860280
v -0.200002 0.098703 0.860280
v -0.200002 0.298703 0.860280
v -0.200002 0.398703 0.860280
v -0.100002 -0.301297 0.860280
v -0.100002 -0.201297 0.860280
v -0.100002 -0.001297 0.860280
v 0.099998 -0.301297 0.860280
v 0.099998 -0.201297 0.860280
v 0.099998 -0.001297 0.860280
v 0.199998 -0.501297 0.860280
v 0.199998 -0.401297 0.860280
v 0.199998 -0.001297 0.860280
v 0.199998 0.398703 0.860280
v 0.299998 -0.901297 0.860280
v 0.299998 -0.801297 0.860280
v 0.299998 -0.601297 0.860280
v 0.299998 -0.501297 0.860280
v 0.299998 0.098703 0.860280
v 0.299998 0.398703 0.860280
v 0.399998 -0.301297 0.860280
v 0.399998 -0.001297 0.860280
v 0.499998 0.298703 0.860280
v 0.499998 0.398703 0.860280
v 0.599998 -0.001297 0.860280
v 0.599998 0.098703 0.860280
v 0.599998 0.298703 0.860280
v 0.599998 0.398703 0.860280
v 0.799998 -0.901297 0.860280
v 0.799998 -0.801297 0.860280
v 0.799998 0.698703 0.860280
v -1.000002 -0.301297 0.760280
v -1.000002 -0.201297 0.760280
v -1.000002 -0.101297 0.760280
v -1.000002 -0.001297 0.760280
v -0.800002 -0.301297 0.760280
v -0.800002 -0.201297 0.760280
v -0.800002 -0.101297 0.760280
v -0.800002 -0.001297 0.760280
v -0.700002 0.698703 0.760280
v -0.700002 0.998703 0.760280
v -0.600002 0.698703 0.760280
v -0.600002 0.898703 0.760280
v -0.400002 0.698703 0.760280
v -0.400002 0.898703 0.760280
v -0.300002 0.698703 0.760280
v -0.300002 0.998703 0.760280
v 0.299998 0.698703 0.760280
v 0.299998 0.998703 0.760280
v 0.399998 0.698703 0.760280
v 0.399998 0.898703 0.760280
v 0.599998 0.698703 0.760280
v 0.599998 0.898703 0.760280
v 0.699998 0.698703 0.760280
v 0.699998 0.998703 0.760280
v 0.799998 -0.301297 0.760280
v 0.799998 -0.201297 0.760280
v 0.799998 -0.101297 0.760280
v 0.799998 -0.001297 0.760280
v 0.999998 -0.301297 0.760280
v 0.999998 -0.201297 0.760280
v 0.999998 -0.101297 0.760280
v 0.999998 -0.001297 0.760280
v -0.800002 -0.901297 -0.139720
v -0.800002 -0.801297 -0.139720
v -0.800002 -0.601297 -0.139720
v -0.300002 -0.901297 -0.139720
v -0.300002 -0.801297 -0.139720
v -0.300002 -0.601297 -0.139720
v 0.299998 -0.901297 -0.139720
v 0.299998 -0.801297 -0.139720
v 0.299998 -0.601297 -0.139720
v 0.799998 -0.901297 -0.139720
v 0.799998 -0.801297 -0.139720
v 0.799998 -0.601297 -0.139720
v -0.200002 0.298703 -0.839720
v -0.200002 1.198703 -0.839720
v 0.199998 0.298703 -0.839720
v 0.199998 1.198703 -0.839720
v -1.000002 -0.301297 0.660280
v -1.000002 -0.201297 0.660280
v -1.000002 -0.101297 0.660280
v -1.000002 -0.001297 0.660280
v -0.800002 -0.301297 0.660280
v -0.800002 -0.201297 0.660280
v -0.800002 -0.101297 0.660280
v -0.800002 -0.001297 0.660280
v 0.799998 -0.301297 0.660280
v 0.799998 -0.201297 0.660280
v 0.799998 -0.101297 0.660280
v 0.799998 -0.001297 0.660280
v 0.999998 -0.301297 0.660280
v 0.999998 -0.201297 0.660280
v 0.999998 -0.101297 0.660280
v 0.999998 -0.001297 0.660280
v -0.700002 0.698703 0.560280
v -0.700002 0.998703 0.560280
v -0.600002 0.698703 0.560280
v -0.300002 0.698703 0.560280
v -0.300002 0.998703 0.560280
v 0.299998 0.698703 0.560280
v 0.299998 0.998703 0.560280
v 0.599998 0.698703 0.560280
v 0.699998 0.698703 0.560280
v 0.699998 0.998703 0.560280
v -0.800002 -0.901297 0.260280
v -0.800002 -0.801297 0.260280
v -0.800002 -0.601297 0.260280
v -0.300002 -0.901297 0.260280
v -0.300002 -0.801297 0.260280
v -0.300002 -0.601297 0.260280
v 0.299998 -0.901297 0.260280
v 0.299998 -0.801297 0.260280
v 0.299998 -0.601297 0.260280
v 0.799998 -0.901297 0.260280
v 0.799998 -0.801297 0.260280
v 0.799998 -0.601297 0.260280
v -0.800002 -0.901297 -0.739720
v -0.800002 -0.801297 -0.739720
v -0.800002 0.698703 -0.739720
v -0.300002 -0.901297 -0.739720
v -0.300002 -0.801297 -0.739720
v -0.300002 -0.601297 -0.739720
v -0.300002 -0.401297 -0.739720
v -0.200002 -0.101297 -0.739720
v -0.200002 0.298703 -0.739720
v 0.199998 -0.101297 -0.739720
v 0.199998 0.298703 -0.739720
v 0.299998 -0.901297 -0.739720
v 0.299998 -0.801297 -0.739720
v 0.299998 -0.601297 -0.739720
v 0.299998 -0.401297 -0.739720
v 0.799998 -0.901297 -0.739720
v 0.799998 -0.801297 -0.739720
v 0.799998 0.698703 -0.739720
v -0.200002 -0.101297 -1.139720
v -0.200002 1.198703 -1.139720
v 0.199998 -0.101297 -1.139720
v 0.199998 1.198703 -1.139720
v -0.800002 -0.901297 0.860280
v -0.300002 -0.901297 0.860280
v 0.299998 -0.901297 0.860280
v 0.799998 -0.901297 0.860280
v -0.800002 -0.901297 0.260280
v -0.300002 -0.901297 0.260280
v 0.299998 -0.901297 0.260280
v 0.799998 -0.901297 0.260280
v -0.800002 -0.901297 -0.139720
v -0.300002 -0.901297 -0.139720
v 0.299998 -0.901297 -0.139720
v 0.799998 -0.901297 -0.139720
v -0.800002 -0.901297 -0.739720
v -0.300002 -0.901297 -0.739720
v 0.299998 -0.901297 -0.739720
v 0.799998 -0.901297 -0.739720
v -0.300002 -0.601297 0.860280
v 0.299998 -0.601297 0.860280
v -0.800002 -0.601297 0.260280
v -0.300002 -0.601297 0.260280
v 0.299998 -0.601297 0.260280
v 0.799998 -0.601297 0.260280
v -0.800002 -0.601297 -0.139720
v -0.300002 -0.601297 -0.139720
v 0.299998 -0.601297 -0.139720
v 0.799998 -0.601297 -0.139720
v -0.300002 -0.601297 -0.739720
v 0.299998 -0.601297 -0.739720
v -0.400002 -0.301297 0.960280
v -0.100002 -0.301297 0.960280
v 0.099998 -0.301297 0.960280
v 0.399998 -0.301297 0.960280
v -0.400002 -0.301297 0.860280
v -0.100002 -0.301297 0.860280
v 0.099998 -0.301297 0.860280
v 0.399998 -0.301297 0.860280
v -1.000002 -0.301297 0.760280
v -0.800002 -0.301297 0.760280
v 0.799998 -0.301297 0.760280
v 0.999998 -0.301297 0.760280
v -1.000002 -0.301297 0.660280
v -0.800002 -0.301297 0.660280
v 0.799998 -0.301297 0.660280
v 0.999998 -0.301297 0.660280
v -0.100002 -0.201297 0.960280
v 0.099998 -0.201297 0.960280
v -0.100002 -0.201297 0.860280
v 0.099998 -0.201297 0.860280
v -1.000002 -0.101297 0.760280
v -0.800002 -0.101297 0.760280
v 0.799998 -0.101297 0.760280
v 0.999998 -0.101297 0.760280
v -1.000002 -0.101297 0.660280
v -0.800002 -0.101297 0.660280
v 0.799998 -0.101297 0.660280
v 0.999998 -0.101297 0.660280
v -0.200002 -0.101297 -0.739720
v 0.199998 -0.101297 -0.739720
v -0.200002 -0.101297 -1.139720
v 0.199998 -0.101297 -1.139720
v -1.000002 -0.201297 0.760280
v -0.800002 -0.201297 0.760280
v 0.799998 -0.201297 0.760280
v 0.999998 -0.201297 0.760280
v -1.000002 -0.201297 0.660280
v -0.800002 -0.201297 0.660280
v 0.799998 -0.201297 0.660280
v 0.999998 -0.201297 0.660280
v -0.400002 -0.001297 0.960280
v -0.100002 -0.001297 0.960280
v 0.099998 -0.001297 0.960280
v 0.399998 -0.001297 0.960280
v -0.400002 -0.001297 0.860280
v -0.200002 -0.001297 0.860280
v -0.100002 -0.001297 0.860280
v 0.099998 -0.001297 0.860280
v 0.199998 -0.001297 0.860280
v 0.399998 -0.001297 0.860280
v -1.000002 -0.001297 0.760280
v -0.800002 -0.001297 0.760280
v 0.799998 -0.001297 0.760280
v 0.999998 -0.001297 0.760280
v -1.000002 -0.001297 0.660280
v -0.800002 -0.001297 0.660280
v 0.799998 -0.001297 0.660280
v 0.999998 -0.001297 0.660280
v -0.200002 0.298703 -0.739720
v 0.199998 0.298703 -0.739720
v -0.200002 0.298703 -0.839720
v 0.199998 0.298703 -0.839720
v -0.800002 0.698703 0.860280
v 0.799998 0.698703 0.860280
v -0.700002 0.698703 0.760280
v -0.600002 0.698703 0.760280
v -0.400002 0.698703 0.760280
v -0.300002 0.698703 0.760280
v 0.299998 0.698703 0.760280
v 0.399998 0.698703 0.760280
v 0.599998 0.698703 0.760280
v 0.699998 0.698703 0.760280
v -0.700002 0.698703 0.560280
v -0.600002 0.698703 0.560280
v -0.300002 0.698703 0.560280
v 0.299998 0.698703 0.560280
v 0.599998 0.698703 0.560280
v 0.699998 0.698703 0.560280
v -0.600002 0.698703 0.360280
v 0.599998 0.698703 0.360280
v -0.600002 0.698703 0.160280
v 0.599998 0.698703 0.160280
v -0.600002 0.698703 -0.039720
v 0.599998 0.698703 -0.039720
v -0.600002 0.698703 -0.239720
v 0.599998 0.698703 -0.239720
v -0.600002 0.698703 -0.439720
v 0.599998 0.698703 -0.439720
v -0.800002 0.698703 -0.739720
v 0.799998 0.698703 -0.739720
v -0.700002 0.998703 0.760280
v -0.300002 0.998703 0.760280
v 0.299998 0.998703 0.760280
v 0.699998 0.998703 0.760280
v -0.700002 0.998703 0.560280
v -0.300002 0.998703 0.560280
v 0.299998 0.998703 0.560280
v 0.699998 0.998703 0.560280
v -0.200002 1.198703 -0.839720
v 0.199998 1.198703 -0.839720
v -0.200002 1.198703 -1.139720
v 0.199998 1.198703 -1.139720
vn -1.0000 -0.0000 -0.0000
vn 1.0000 -0.0000 -0.0000
vn -0.0000 -0.0000 1.0000
vn -0.0000 -0.0000 -1.0000
vn -0.0000 -1.0000 -0.0000
vn -0.0000 1.0000 -0.0000
vt 0.830078 0.500000
vt 0.876953 0.500000
vt 0.814453 0.500000
vt 0.822266 0.500000
vt 0.818359 0.500000
vt 0.955078 0.500000
vt 0.826172 0.500000
vt 0.947266 0.500000
s 0
usemtl palette
f 3/1/1 2/1/1 1/1/1
f 4/1/1 2/1/1 3/1/1
f 7/1/1 6/1/1 5/1/1
f 8/1/1 6/1/1 7/1/1
f 13/2/1 10/2/1 9/2/1
f 14/2/1 10/2/1 13/2/1
f 15/2/1 12/2/1 11/2/1
f 16/2/1 12/2/1 15/2/1
f 17/3/1 14/3/1 13/3/1
f 18/3/1 14/3/1 17/3/1
f 19/3/1 14/3/1 18/3/1
f 20/3/1 16/3/1 15/3/1
f 21/3/1 16/3/1 20/3/1
f 22/3/1 16/3/1 21/3/1
f 23/3/1 19/3/1 18/3/1
f 23/4/1 20/4/1 19/4/1
f 24/3/1 21/3/1 20/3/1
f 24/4/1 20/4/1 23/4/1
f 25/3/1 17/3/1 13/3/1
f 26/3/1 17/3/1 25/3/1
f 27/3/1 24/3/1 23/3/1
f 28/3/1 24/3/1 27/3/1
f 29/3/1 25/3/1 13/3/1
f 30/3/1 17/3/1 26/3/1
f 31/3/1 29/3/1 13/3/1
f 31/3/1 30/3/1 29/3/1
f 32/3/1 17/3/1 30/3/1
f 32/3/1 30/3/1 31/3/1
f 33/3/1 31/3/1 13/3/1
f 34/3/1 17/3/1 32/3/1
f 35/5/1 18/5/1 17/5/1
f 35/3/1 34/3/1 33/3/1
f 35/3/1 17/3/1 34/3/1
f 36/3/1 23/3/1 18/3/1
f 36/5/1 18/5/1 35/5/1
f 36/3/1 27/3/1 23/3/1
f 37/5/1 28/5/1 27/5/1
f 37/3/1 27/3/1 36/3/1
f 38/3/1 24/3/1 28/3/1
f 38/5/1 28/5/1 37/5/1
f 39/3/1 21/3/1 24/3/1
f 39/3/1 24/3/1 38/3/1
f 39/5/1 22/5/1 21/5/1
f 40/3/1 16/3/1 22/3/1
f 40/5/1 22/5/1 39/5/1
f 41/3/1 39/3/1 38/3/1
f 41/3/1 38/3/1 37/3/1
f 41/3/1 40/3/1 39/3/1
f 41/3/1 36/3/1 35/3/1
f 41/3/1 37/3/1 36/3/1
f 41/3/1 33/3/1 13/3/1
f 41/3/1 35/3/1 33/3/1
f 42/3/1 16/3/1 40/3/1
f 42/3/1 40/3/1 41/3/1
f 45/3/1 44/3/1 43/3/1
f 46/3/1 44/3/1 45/3/1
f 49/1/1 48/1/1 47/1/1
f 50/1/1 48/1/1 49/1/1
f 53/4/1 52/4/1 51/4/1
f 54/4/1 52/4/1 53/4/1
f 55/4/1 52/4/1 54/4/1
f 56/4/1 52/4/1 55/4/1
f 59/1/1 58/1/1 57/1/1
f 60/1/1 58/1/1 59/1/1
f 65/2/1 62/2/1 61/2/1
f 66/2/1 62/2/1 65/2/1
f 67/2/1 64/2/1 63/2/1
f 68/2/1 64/2/1 67/2/1
f 69/3/1 66/3/1 65/3/1
f 70/3/1 66/3/1 69/3/1
f 71/3/1 68/3/1 67/3/1
f 72/3/1 68/3/1 71/3/1
f 75/3/1 74/3/1 73/3/1
f 76/3/1 74/3/1 75/3/1
f 77/2/2 78/2/2 81/2/2
f 81/2/2 78/2/2 82/2/2
f 79/2/2 80/2/2 83/2/2
f 83/2/2 80/2/2 84/2/2
f 81/3/2 82/3/2 85/3/2
f 85/3/2 82/3/2 86/3/2
f 83/3/2 84/3/2 87/3/2
f 87/3/2 84/3/2 88/3/2
f 89/3/2 90/3/2 91/3/2
f 91/3/2 90/3/2 92/3/2
f 93/1/2 94/1/2 95/1/2
f 95/1/2 94/1/2 96/1/2
f 97/4/2 98/4/2 99/4/2
f 99/4/2 98/4/2 100/4/2
f 100/4/2 98/4/2 101/4/2
f 101/4/2 98/4/2 102/4/2
f 103/1/2 104/1/2 105/1/2
f 105/1/2 104/1/2 106/1/2
f 107/3/2 108/3/2 109/3/2
f 109/3/2 108/3/2 110/3/2
f 111/2/2 112/2/2 115/2/2
f 115/2/2 112/2/2 116/2/2
f 113/2/2 114/2/2 117/2/2
f 117/2/2 114/2/2 118/2/2
f 115/3/2 116/3/2 119/3/2
f 119/3/2 116/3/2 120/3/2
f 120/3/2 116/3/2 121/3/2
f 117/3/2 118/3/2 122/3/2
f 122/3/2 118/3/2 123/3/2
f 123/3/2 118/3/2 124/3/2
f 120/3/2 121/3/2 125/3/2
f 121/4/2 122/4/2 125/4/2
f 122/3/2 123/3/2 126/3/2
f 125/4/2 122/4/2 126/4/2
f 115/3/2 119/3/2 127/3/2
f 127/3/2 119/3/2 128/3/2
f 125/3/2 126/3/2 129/3/2
f 129/3/2 126/3/2 130/3/2
f 115/3/2 127/3/2 131/3/2
f 128/3/2 119/3/2 132/3/2
f 115/3/2 131/3/2 133/3/2
f 131/3/2 132/3/2 133/3/2
f 132/3/2 119/3/2 134/3/2
f 133/3/2 132/3/2 134/3/2
f 115/3/2 133/3/2 135/3/2
f 134/3/2 119/3/2 136/3/2
f 119/5/2 120/5/2 137/5/2
f 135/3/2 136/3/2 137/3/2
f 136/3/2 119/3/2 137/3/2
f 120/3/2 125/3/2 138/3/2
f 137/5/2 120/5/2 138/5/2
f 125/3/2 129/3/2 138/3/2
f 129/5/2 130/5/2 139/5/2
f 138/3/2 129/3/2 139/3/2
f 130/3/2 126/3/2 140/3/2
f 139/5/2 130/5/2 140/5/2
f 126/3/2 123/3/2 141/3/2
f 140/3/2 126/3/2 141/3/2
f 123/5/2 124/5/2 141/5/2
f 124/3/2 118/3/2 142/3/2
f 141/5/2 124/5/2 142/5/2
f 140/3/2 141/3/2 143/3/2
f 139/3/2 140/3/2 143/3/2
f 141/3/2 142/3/2 143/3/2
f 137/3/2 138/3/2 143/3/2
f 138/3/2 139/3/2 143/3/2
f 115/3/2 135/3/2 143/3/2
f 135/3/2 137/3/2 143/3/2
f 142/3/2 118/3/2 144/3/2
f 143/3/2 142/3/2 144/3/2
f 145/1/2 146/1/2 147/1/2
f 147/1/2 146/1/2 148/1/2
f 149/1/2 150/1/2 151/1/2
f 151/1/2 150/1/2 152/1/2
f 155/1/3 154/1/3 153/1/3
f 156/1/3 154/1/3 155/1/3
f 157/1/3 154/1/3 156/1/3
f 158/1/3 154/1/3 157/1/3
f 160/1/3 157/1/3 156/1/3
f 161/6/3 158/6/3 157/6/3
f 161/1/3 157/1/3 160/1/3
f 162/6/3 158/6/3 161/6/3
f 163/1/3 160/1/3 159/1/3
f 163/1/3 161/1/3 160/1/3
f 163/1/3 162/1/3 161/1/3
f 164/1/3 162/1/3 163/1/3
f 168/3/3 167/3/3 166/3/3
f 169/3/3 167/3/3 168/3/3
f 170/7/3 169/7/3 168/7/3
f 171/3/3 167/3/3 169/3/3
f 171/7/3 169/7/3 170/7/3
f 172/3/3 168/3/3 166/3/3
f 173/7/3 170/7/3 168/7/3
f 173/3/3 168/3/3 172/3/3
f 174/2/3 166/2/3 165/2/3
f 175/3/3 172/3/3 166/3/3
f 175/2/3 166/2/3 174/2/3
f 176/3/3 172/3/3 175/3/3
f 177/3/3 172/3/3 176/3/3
f 178/8/3 171/8/3 170/8/3
f 179/3/3 167/3/3 171/3/3
f 179/8/3 171/8/3 178/8/3
f 180/3/3 172/3/3 177/3/3
f 180/4/3 177/4/3 176/4/3
f 181/3/3 172/3/3 180/3/3
f 182/7/3 170/7/3 173/7/3
f 183/8/3 178/8/3 170/8/3
f 183/7/3 170/7/3 182/7/3
f 184/1/3 179/1/3 178/1/3
f 184/8/3 178/8/3 183/8/3
f 185/3/3 167/3/3 179/3/3
f 185/1/3 179/1/3 184/1/3
f 186/3/3 172/3/3 181/3/3
f 188/3/3 184/3/3 183/3/3
f 188/3/3 183/3/3 182/3/3
f 188/3/3 185/3/3 184/3/3
f 189/3/3 187/3/3 186/3/3
f 189/3/3 186/3/3 181/3/3
f 190/3/3 187/3/3 189/3/3
f 191/3/3 185/3/3 188/3/3
f 192/4/3 180/4/3 176/4/3
f 192/4/3 181/4/3 180/4/3
f 193/3/3 189/3/3 181/3/3
f 193/4/3 181/4/3 192/4/3
f 194/3/3 185/3/3 191/3/3
f 195/3/3 167/3/3 185/3/3
f 195/3/3 185/3/3 194/3/3
f 198/4/3 192/4/3 176/4/3
f 199/3/3 193/3/3 192/3/3
f 199/4/3 192/4/3 198/4/3
f 200/7/3 195/7/3 194/7/3
f 201/3/3 167/3/3 195/3/3
f 201/7/3 195/7/3 200/7/3
f 202/3/3 189/3/3 193/3/3
f 202/3/3 198/3/3 197/3/3
f 202/3/3 193/3/3 199/3/3
f 202/3/3 199/3/3 198/3/3
f 203/7/3 200/7/3 194/7/3
f 204/8/3 201/8/3 200/8/3
f 205/3/3 167/3/3 201/3/3
f 205/8/3 201/8/3 204/8/3
f 206/3/3 203/3/3 202/3/3
f 206/7/3 200/7/3 203/7/3
f 207/8/3 204/8/3 200/8/3
f 207/7/3 200/7/3 206/7/3
f 208/1/3 205/1/3 204/1/3
f 208/8/3 204/8/3 207/8/3
f 209/3/3 167/3/3 205/3/3
f 209/1/3 205/1/3 208/1/3
f 210/2/3 197/2/3 196/2/3
f 211/3/3 206/3/3 202/3/3
f 211/2/3 197/2/3 210/2/3
f 211/3/3 208/3/3 207/3/3
f 211/3/3 209/3/3 208/3/3
f 211/3/3 207/3/3 206/3/3
f 211/3/3 202/3/3 197/3/3
f 212/3/3 167/3/3 209/3/3
f 212/3/3 209/3/3 211/3/3
f 217/1/3 214/1/3 213/1/3
f 218/1/3 214/1/3 217/1/3
f 219/1/3 216/1/3 215/1/3
f 220/1/3 216/1/3 219/1/3
f 223/3/3 222/3/3 221/3/3
f 224/3/3 222/3/3 223/3/3
f 225/6/3 224/6/3 223/6/3
f 226/3/3 222/3/3 224/3/3
f 226/6/3 224/6/3 225/6/3
f 227/3/3 226/3/3 225/3/3
f 228/3/3 222/3/3 226/3/3
f 228/3/3 226/3/3 227/3/3
f 231/3/3 230/3/3 229/3/3
f 232/3/3 230/3/3 231/3/3
f 233/6/3 232/6/3 231/6/3
f 234/3/3 230/3/3 232/3/3
f 234/6/3 232/6/3 233/6/3
f 235/3/3 234/3/3 233/3/3
f 236/3/3 230/3/3 234/3/3
f 236/3/3 234/3/3 235/3/3
f 241/1/3 238/1/3 237/1/3
f 242/1/3 238/1/3 241/1/3
f 243/1/3 240/1/3 239/1/3
f 244/1/3 240/1/3 243/1/3
f 248/2/3 246/2/3 245/2/3
f 249/3/3 247/3/3 246/3/3
f 249/2/3 246/2/3 248/2/3
f 250/3/3 247/3/3 249/3/3
f 254/2/3 252/2/3 251/2/3
f 255/3/3 253/3/3 252/3/3
f 255/2/3 252/2/3 254/2/3
f 256/3/3 253/3/3 255/3/3
f 259/4/3 258/4/3 257/4/3
f 260/4/3 258/4/3 259/4/3
f 261/1/4 262/1/4 265/1/4
f 265/1/4 262/1/4 266/1/4
f 263/1/4 264/1/4 267/1/4
f 267/1/4 264/1/4 268/1/4
f 269/1/4 270/1/4 273/1/4
f 273/1/4 270/1/4 274/1/4
f 271/1/4 272/1/4 275/1/4
f 275/1/4 272/1/4 276/1/4
f 277/3/4 278/3/4 279/3/4
f 279/3/4 278/3/4 280/3/4
f 280/3/4 278/3/4 281/3/4
f 282/3/4 283/3/4 284/3/4
f 284/3/4 283/3/4 285/3/4
f 285/3/4 283/3/4 286/3/4
f 287/2/4 288/2/4 290/2/4
f 288/3/4 289/3/4 291/3/4
f 290/2/4 288/2/4 291/2/4
f 291/3/4 289/3/4 292/3/4
f 293/2/4 294/2/4 296/2/4
f 294/3/4 295/3/4 297/3/4
f 296/2/4 294/2/4 297/2/4
f 297/3/4 295/3/4 298/3/4
f 299/2/4 300/2/4 302/2/4
f 300/3/4 301/3/4 303/3/4
f 302/2/4 300/2/4 303/2/4
f 303/3/4 301/3/4 304/3/4
f 304/3/4 301/3/4 305/3/4
f 305/3/4 301/3/4 306/3/4
f 306/3/4 301/3/4 307/3/4
f 305/3/4 306/3/4 308/3/4
f 307/3/4 301/3/4 309/3/4
f 304/4/4 305/4/4 312/4/4
f 305/3/4 308/3/4 313/3/4
f 308/3/4 309/3/4 313/3/4
f 312/4/4 305/4/4 313/4/4
f 310/2/4 311/2/4 314/2/4
f 311/3/4 312/3/4 315/3/4
f 314/2/4 311/2/4 315/2/4
f 312/3/4 313/3/4 315/3/4
f 313/3/4 309/3/4 316/3/4
f 315/3/4 313/3/4 316/3/4
f 309/3/4 301/3/4 316/3/4
f 317/4/4 318/4/4 319/4/4
f 319/4/4 318/4/4 320/4/4
f 325/2/5 322/2/5 321/2/5
f 326/2/5 322/2/5 325/2/5
f 327/2/5 324/2/5 323/2/5
f 328/2/5 324/2/5 327/2/5
f 333/2/5 330/2/5 329/2/5
f 334/2/5 330/2/5 333/2/5
f 335/2/5 332/2/5 331/2/5
f 336/2/5 332/2/5 335/2/5
f 340/4/5 338/4/5 337/4/5
f 341/4/5 338/4/5 340/4/5
f 343/4/5 340/4/5 339/4/5
f 343/4/5 342/4/5 341/4/5
f 343/4/5 341/4/5 340/4/5
f 344/4/5 342/4/5 343/4/5
f 345/4/5 342/4/5 344/4/5
f 346/4/5 342/4/5 345/4/5
f 347/4/5 345/4/5 344/4/5
f 348/4/5 345/4/5 347/4/5
f 353/1/5 350/1/5 349/1/5
f 354/1/5 350/1/5 353/1/5
f 355/1/5 352/1/5 351/1/5
f 356/1/5 352/1/5 355/1/5
f 361/1/5 358/1/5 357/1/5
f 362/1/5 358/1/5 361/1/5
f 363/1/5 360/1/5 359/1/5
f 364/1/5 360/1/5 363/1/5
f 367/1/5 366/1/5 365/1/5
f 368/1/5 366/1/5 367/1/5
f 373/1/5 370/1/5 369/1/5
f 374/1/5 370/1/5 373/1/5
f 375/1/5 372/1/5 371/1/5
f 376/1/5 372/1/5 375/1/5
f 379/4/5 378/4/5 377/4/5
f 380/4/5 378/4/5 379/4/5
f 381/1/6 382/1/6 385/1/6
f 385/1/6 382/1/6 386/1/6
f 383/1/6 384/1/6 387/1/6
f 387/1/6 384/1/6 388/1/6
f 389/1/6 390/1/6 393/1/6
f 393/1/6 390/1/6 394/1/6
f 390/6/6 391/6/6 395/6/6
f 394/1/6 390/1/6 395/1/6
f 391/1/6 392/1/6 396/1/6
f 395/6/6 391/6/6 396/6/6
f 396/1/6 392/1/6 397/1/6
f 397/1/6 392/1/6 398/1/6
f 399/1/6 400/1/6 403/1/6
f 403/1/6 400/1/6 404/1/6
f 401/1/6 402/1/6 405/1/6
f 405/1/6 402/1/6 406/1/6
f 407/4/6 408/4/6 409/4/6
f 409/4/6 408/4/6 410/4/6
f 411/3/6 412/3/6 413/3/6
f 413/3/6 412/3/6 414/3/6
f 414/3/6 412/3/6 415/3/6
f 415/3/6 412/3/6 416/3/6
f 416/3/6 412/3/6 417/3/6
f 417/3/6 412/3/6 418/3/6
f 418/3/6 412/3/6 419/3/6
f 419/3/6 412/3/6 420/3/6
f 411/3/6 413/3/6 421/3/6
f 416/3/6 417/3/6 423/3/6
f 423/3/6 417/3/6 424/3/6
f 420/3/6 412/3/6 426/3/6
f 424/5/6 425/5/6 427/5/6
f 421/3/6 422/3/6 427/3/6
f 422/5/6 423/5/6 427/5/6
f 423/5/6 424/5/6 427/5/6
f 425/3/6 426/3/6 428/3/6
f 427/5/6 425/5/6 428/5/6
f 421/3/6 427/3/6 429/3/6
f 427/3/6 428/3/6 429/3/6
f 428/3/6 426/3/6 430/3/6
f 429/3/6 428/3/6 430/3/6
f 421/3/6 429/3/6 431/3/6
f 429/5/6 430/5/6 431/5/6
f 430/3/6 426/3/6 432/3/6
f 431/5/6 430/5/6 432/5/6
f 421/3/6 431/3/6 433/3/6
f 431/3/6 432/3/6 433/3/6
f 432/3/6 426/3/6 434/3/6
f 433/3/6 432/3/6 434/3/6
f 421/3/6 433/3/6 435/3/6
f 433/5/6 434/5/6 435/5/6
f 434/3/6 426/3/6 436/3/6
f 435/5/6 434/5/6 436/5/6
f 421/3/6 435/3/6 437/3/6
f 411/3/6 421/3/6 437/3/6
f 435/3/6 436/3/6 437/3/6
f 436/3/6 426/3/6 438/3/6
f 437/3/6 436/3/6 438/3/6
f 426/3/6 412/3/6 438/3/6
f 439/3/6 440/3/6 443/3/6
f 443/3/6 440/3/6 444/3/6
f 441/3/6 442/3/6 445/3/6
f 445/3/6 442/3/6 446/3/6
f 447/4/6 448/4/6 449/4/6
f 449/4/6 448/4/6 450/4/6
